<svg id="Camada_3" data-name="Camada 3" xmlns="http://www.w3.org/2000/svg" viewBox="0 0 659.83 224.73"><defs><style>.cls-1{fill:none;stroke:#090100;stroke-linecap:round;stroke-miterlimit:10;stroke-width:12px;}.cls-2{fill:#090100;}</style></defs><title>SISCCO</title><line class="cls-1" x1="84.44" y1="192.14" x2="84.44" y2="29.93"/><line class="cls-1" x1="57.85" y1="133.64" x2="57.85" y2="88.43"/><line class="cls-1" x1="6" y1="113.69" x2="28.6" y2="113.69"/><line class="cls-1" x1="111.03" y1="157.57" x2="111.03" y2="56.52"/><line class="cls-1" x1="137.63" y1="218.73" x2="137.63" y2="6"/><line class="cls-1" x1="164.22" y1="192.14" x2="164.22" y2="29.93"/><line class="cls-1" x1="190.81" y1="157.57" x2="190.81" y2="56.52"/><path class="cls-2" d="M285.63,83q12.57,0,21.76,4.39a41.52,41.52,0,0,1,15.54,12.9l-10.17,9a33.13,33.13,0,0,0-12.08-10.93A35.3,35.3,0,0,0,284.78,95a31.26,31.26,0,0,0-11.16,1.7,13.9,13.9,0,0,0-6.43,4.52,10.5,10.5,0,0,0-2.05,6.35,9.62,9.62,0,0,0,3,7.07q3,3,11.37,4.72l18.94,3.92Q312,126,317.7,131.66a19.32,19.32,0,0,1,5.65,14.28,21.7,21.7,0,0,1-4.66,13.88,29.25,29.25,0,0,1-12.93,9A54.42,54.42,0,0,1,286.34,172a62.39,62.39,0,0,1-17.81-2.36,49,49,0,0,1-13.84-6.42,39.23,39.23,0,0,1-9.75-9.29l10.45-9.69a34.22,34.22,0,0,0,7.49,8.18A33.08,33.08,0,0,0,273.41,158a42.73,42.73,0,0,0,13.35,2A38.79,38.79,0,0,0,298,158.51a15.2,15.2,0,0,0,7.21-4.26,9.84,9.84,0,0,0,2.47-6.74,9.4,9.4,0,0,0-2.75-6.68q-2.76-2.88-10.25-4.45l-20.49-4.32a46.91,46.91,0,0,1-14-4.85,21.7,21.7,0,0,1-8.2-7.66,19.46,19.46,0,0,1-2.68-10.15,22.13,22.13,0,0,1,4.31-13.29,29.8,29.8,0,0,1,12.5-9.56Q274.32,83,285.63,83Z" transform="translate(-18.86 -21.97)"/><path class="cls-2" d="M359.67,84.26v86.43H344.55V84.26Z" transform="translate(-18.86 -21.97)"/><path class="cls-2" d="M419.15,83q12.57,0,21.76,4.39a41.52,41.52,0,0,1,15.54,12.9l-10.17,9A33.13,33.13,0,0,0,434.2,98.34,35.24,35.24,0,0,0,418.3,95a31.26,31.26,0,0,0-11.16,1.7,14,14,0,0,0-6.43,4.52,10.56,10.56,0,0,0-2,6.35,9.66,9.66,0,0,0,3,7.07q3,3,11.38,4.72L432,123.28q13.56,2.76,19.22,8.38a19.36,19.36,0,0,1,5.65,14.28,21.71,21.71,0,0,1-4.67,13.88,29.16,29.16,0,0,1-12.92,9A54.48,54.48,0,0,1,419.86,172a62.27,62.27,0,0,1-17.8-2.36,49,49,0,0,1-13.85-6.42,39.23,39.23,0,0,1-9.75-9.29l10.46-9.69a34.17,34.17,0,0,0,7.48,8.18A33.3,33.3,0,0,0,406.93,158a42.73,42.73,0,0,0,13.35,2,38.91,38.91,0,0,0,11.24-1.44,15.21,15.21,0,0,0,7.2-4.26,9.84,9.84,0,0,0,2.47-6.74,9.36,9.36,0,0,0-2.75-6.68q-2.76-2.88-10.25-4.45l-20.48-4.32a47,47,0,0,1-14-4.85,21.78,21.78,0,0,1-8.2-7.66,19.46,19.46,0,0,1-2.68-10.15,22.13,22.13,0,0,1,4.31-13.29,29.8,29.8,0,0,1,12.5-9.56Q407.86,83,419.15,83Z" transform="translate(-18.86 -21.97)"/><path class="cls-2" d="M547.47,147.77A34.18,34.18,0,0,1,539,161.06a37,37,0,0,1-13.28,8.19A49.36,49.36,0,0,1,508.9,172q-13.42,0-23.32-5.37a37.18,37.18,0,0,1-15.26-15.32q-5.37-10-5.37-23.84t5.37-23.83a37.18,37.18,0,0,1,15.26-15.32q9.9-5.37,23.18-5.37a54.74,54.74,0,0,1,16.6,2.36A33.93,33.93,0,0,1,538,92.38a31.13,31.13,0,0,1,8.06,11.79l-14.27,5.89q-2.84-7.73-8.2-11.33t-14-3.6a29.48,29.48,0,0,0-15.12,3.8,25.69,25.69,0,0,0-10.1,11q-3.6,7.2-3.6,17.54T484.17,145A24.61,24.61,0,0,0,493.92,156a29.26,29.26,0,0,0,15.26,3.8,26.6,26.6,0,0,0,14.91-4.13,22.51,22.51,0,0,0,9-12.37Z" transform="translate(-18.86 -21.97)"/><path class="cls-2" d="M580.55,147.77a34.16,34.16,0,0,1-8.47,13.29,37.06,37.06,0,0,1-13.29,8.19A49.32,49.32,0,0,1,542,172q-13.43,0-23.31-5.37a37.12,37.12,0,0,1-15.26-15.32q-5.37-10-5.37-23.84t5.37-23.83a37.12,37.12,0,0,1,15.26-15.32q9.89-5.37,23.17-5.37a54.69,54.69,0,0,1,16.6,2.36,34,34,0,0,1,12.65,7.07,31.22,31.22,0,0,1,8,11.79l-14.27,5.89q-2.83-7.73-8.2-11.33t-14-3.6a29.42,29.42,0,0,0-15.12,3.8,25.71,25.71,0,0,0-10.11,11q-3.6,7.2-3.6,17.54T517.25,145A24.61,24.61,0,0,0,527,156a29.26,29.26,0,0,0,15.26,3.8,26.56,26.56,0,0,0,14.91-4.13,22.51,22.51,0,0,0,9-12.37Z" transform="translate(-18.86 -21.97)"/><path class="cls-2" d="M634.61,83q13.56,0,23.46,5.37a37.23,37.23,0,0,1,15.26,15.32q5.35,10,5.36,23.83t-5.36,23.84a37.23,37.23,0,0,1-15.26,15.32q-9.9,5.37-23.46,5.37t-23.31-5.37A37.12,37.12,0,0,1,596,151.31q-5.37-10-5.37-23.84T596,103.64A37.12,37.12,0,0,1,611.3,88.32Q621.18,82.95,634.61,83Zm0,12.18a28.59,28.59,0,0,0-15.05,3.8,24.81,24.81,0,0,0-9.68,11q-3.39,7.2-3.39,17.54T609.88,145A24.76,24.76,0,0,0,619.56,156a28.59,28.59,0,0,0,15.05,3.8A28.88,28.88,0,0,0,649.8,156,24.76,24.76,0,0,0,659.48,145q3.39-7.28,3.39-17.49t-3.39-17.54a24.81,24.81,0,0,0-9.68-11A28.88,28.88,0,0,0,634.61,95.13Z" transform="translate(-18.86 -21.97)"/></svg>