<svg id="Camada_3" data-name="Camada 3" xmlns="http://www.w3.org/2000/svg" viewBox="0 0 659.27 224.73"><defs><style>.cls-1{fill:none;stroke:#090100;stroke-linecap:round;stroke-miterlimit:10;stroke-width:12px;}.cls-2{fill:#090100;}</style></defs><title>SISCCO - Regular</title><line class="cls-1" x1="84.44" y1="192.14" x2="84.44" y2="29.93"/><line class="cls-1" x1="57.85" y1="133.64" x2="57.85" y2="88.43"/><line class="cls-1" x1="6" y1="113.69" x2="28.6" y2="113.69"/><line class="cls-1" x1="111.03" y1="157.57" x2="111.03" y2="56.52"/><line class="cls-1" x1="137.63" y1="218.73" x2="137.63" y2="6"/><line class="cls-1" x1="164.22" y1="192.14" x2="164.22" y2="29.93"/><line class="cls-1" x1="190.81" y1="157.57" x2="190.81" y2="56.52"/><path class="cls-2" d="M285.21,83q12.29,0,21.19,4.65a39.63,39.63,0,0,1,14.84,13.68l-9.47,6.81q-5.24-8.37-11.8-11.85a33.7,33.7,0,0,0-15.9-3.47,33.34,33.34,0,0,0-12.36,2,15.44,15.44,0,0,0-7.13,5.17,12.29,12.29,0,0,0-2.26,7.27,11.7,11.7,0,0,0,3.1,8q3.1,3.47,12.44,5.44l20.2,4.18q13.43,2.76,18.72,8.32a19.24,19.24,0,0,1,5.3,13.82,20.53,20.53,0,0,1-4.45,13,28.49,28.49,0,0,1-12.5,8.84A51.86,51.86,0,0,1,286.19,172a56.56,56.56,0,0,1-17.87-2.56,43.21,43.21,0,0,1-13.21-6.87,40.83,40.83,0,0,1-9-9.69l9.89-7.47a32.15,32.15,0,0,0,6.92,8.78,30,30,0,0,0,10.24,5.89,41.7,41.7,0,0,0,13.78,2.09,42.71,42.71,0,0,0,12.51-1.63,17.36,17.36,0,0,0,8.12-4.85,11.37,11.37,0,0,0,2.83-7.79,11,11,0,0,0-3-7.53q-3-3.33-11.16-5l-21.9-4.58a45,45,0,0,1-13.92-5,20.05,20.05,0,0,1-7.63-7.6,19.84,19.84,0,0,1-2.33-9.49,21.54,21.54,0,0,1,4.16-12.77,29,29,0,0,1,12-9.36A44.83,44.83,0,0,1,285.21,83Z" transform="translate(-18.86 -21.97)"/><path class="cls-2" d="M357.12,84.26v86.43h-11.3V84.26Z" transform="translate(-18.86 -21.97)"/><path class="cls-2" d="M417.6,83q12.28,0,21.19,4.65a39.63,39.63,0,0,1,14.84,13.68l-9.47,6.81q-5.24-8.37-11.8-11.85a38.84,38.84,0,0,0-28.26-1.5A15.44,15.44,0,0,0,397,99.91a12.29,12.29,0,0,0-2.26,7.27,11.7,11.7,0,0,0,3.1,8q3.12,3.47,12.44,5.44l20.2,4.18q13.43,2.76,18.73,8.32A19.27,19.27,0,0,1,454.47,147,20.53,20.53,0,0,1,450,160a28.49,28.49,0,0,1-12.5,8.84A51.85,51.85,0,0,1,418.59,172a56.58,56.58,0,0,1-17.88-2.56,43.21,43.21,0,0,1-13.21-6.87,40.83,40.83,0,0,1-9-9.69l9.89-7.47a32.34,32.34,0,0,0,6.92,8.78,30,30,0,0,0,10.25,5.89,41.6,41.6,0,0,0,13.77,2.09,42.66,42.66,0,0,0,12.51-1.63,17.31,17.31,0,0,0,8.12-4.85,11.37,11.37,0,0,0,2.83-7.79,11,11,0,0,0-3-7.53q-3-3.33-11.16-5l-21.9-4.58a45,45,0,0,1-13.92-5,20.05,20.05,0,0,1-7.63-7.6,19.84,19.84,0,0,1-2.33-9.49A21.48,21.48,0,0,1,387,95.85a28.87,28.87,0,0,1,12-9.36A44.83,44.83,0,0,1,417.6,83Z" transform="translate(-18.86 -21.97)"/><path class="cls-2" d="M546.76,148.56a35.94,35.94,0,0,1-8.47,12.63,37.08,37.08,0,0,1-12.93,8.06A46.3,46.3,0,0,1,509.18,172q-13.29,0-23-5.44a37.44,37.44,0,0,1-15-15.38q-5.3-10-5.3-23.71t5.3-23.7a37.44,37.44,0,0,1,15-15.38Q495.9,83,508.9,83A52.37,52.37,0,0,1,525,85.24a32.08,32.08,0,0,1,20.07,17.88L533.91,108a24.31,24.31,0,0,0-9-11.32q-5.86-3.87-15.19-3.87a33,33,0,0,0-16.67,4.13,28.45,28.45,0,0,0-11.23,11.85q-4,7.73-4,18.72t3.82,18.66a27.22,27.22,0,0,0,10.88,11.92,32.46,32.46,0,0,0,16.67,4.12,29.75,29.75,0,0,0,16.25-4.38,24.76,24.76,0,0,0,10-13.16Z" transform="translate(-18.86 -21.97)"/><path class="cls-2" d="M579.85,148.56a36.1,36.1,0,0,1-8.48,12.63,36.9,36.9,0,0,1-12.93,8.06A46.26,46.26,0,0,1,542.26,172q-13.28,0-23-5.44a37.5,37.5,0,0,1-15-15.38q-5.29-10-5.29-23.71t5.29-23.7a37.5,37.5,0,0,1,15-15.38Q529,83,542,83a52.39,52.39,0,0,1,16.11,2.29,32,32,0,0,1,20.06,17.88L567,108a24.29,24.29,0,0,0-9-11.32q-5.87-3.87-15.19-3.87a33,33,0,0,0-16.68,4.13,28.51,28.51,0,0,0-11.23,11.85q-4,7.73-4,18.72t3.82,18.66a27.28,27.28,0,0,0,10.88,11.92,32.48,32.48,0,0,0,16.67,4.12,29.75,29.75,0,0,0,16.25-4.38,24.71,24.71,0,0,0,10-13.16Z" transform="translate(-18.86 -21.97)"/><path class="cls-2" d="M634.89,83q13.29,0,23,5.44a37.44,37.44,0,0,1,15,15.38q5.29,10,5.3,23.7t-5.3,23.71a37.44,37.44,0,0,1-15,15.38q-9.68,5.44-23,5.44t-23-5.44a37.42,37.42,0,0,1-15-15.38q-5.31-10-5.3-23.71t5.3-23.7a37.42,37.42,0,0,1,15-15.38Q621.61,83,634.89,83Zm0,9.82a32.49,32.49,0,0,0-16.67,4.13,27.31,27.31,0,0,0-10.88,11.91q-3.81,7.8-3.81,18.66t3.81,18.66a27.28,27.28,0,0,0,10.88,11.92,35.95,35.95,0,0,0,33.42,0,27.49,27.49,0,0,0,10.81-11.92q3.81-7.78,3.81-18.66t-3.81-18.66A27.52,27.52,0,0,0,651.64,96.9,32.43,32.43,0,0,0,634.89,92.77Z" transform="translate(-18.86 -21.97)"/></svg>